# xmcd
#
# Track frame offsets:
#	150
#	10889
#	21552
#	34722
#	46336
#	63439
#	75811
#	86186
#	99079
#	109666
#	124876
#	135281
#
# Disc length: 1969 seconds
#
# Revision: 0
# Processed by: cddbd v1.5.2PL0 Copyright (c) Steve Scherf et al.
# Submitted via: dBpowerAMP V4.0
#
DISCID=8b07af0c
DTITLE=Bluegrass Brethren - Sharin' Jesus
DYEAR=1981
DGENRE=Bluegrass
TTITLE0=There's So Many
TTITLE1=Havin' Fun
TTITLE2=I've Got Jesus
TTITLE3=When He Comes To Take Me Home
TTITLE4=The Closet
TTITLE5=Jesus Eyes 
TTITLE6=There's Nothing I Would Rather Do
TTITLE7=Your Special Friend
TTITLE8=You've Got to Take Him Into Your Heart
TTITLE9=Closer To Thee
TTITLE10=Hey! Hey! What Can I Say
TTITLE11=Yielding 
EXTD=Christan Bluegrass
EXTT0=
EXTT1=
EXTT2=
EXTT3=
EXTT4=
EXTT5=
EXTT6=
EXTT7=
EXTT8=
EXTT9=
EXTT10=
EXTT11=
PLAYORDER=
